<svg id="visual" viewBox="0 0 1920 1080" width="1920" height="1080" xmlns="http://www.w3.org/2000/svg" xmlns:xlink="http://www.w3.org/1999/xlink" version="1.1"><g transform="translate(1020.4450771147497 660.7880976721982)"><path d="M258.4 -515.7C296.8 -425.4 263.6 -279.2 307.9 -183.9C352.2 -88.7 474.1 -44.3 478 2.2C481.9 48.8 367.8 97.7 311.9 172.9C256 248.1 258.2 349.6 216 367.4C173.7 385.2 86.8 319.2 6.2 308.5C-74.5 297.8 -149 342.5 -242.1 354C-335.2 365.6 -446.9 344 -515.5 279.5C-584.1 215 -609.5 107.5 -595.1 8.3C-580.7 -90.8 -526.3 -181.7 -443.8 -222.1C-361.3 -262.5 -250.7 -252.5 -172 -319.6C-93.3 -386.7 -46.7 -530.8 31.7 -585.7C110 -640.5 220 -606.1 258.4 -515.7" fill="none" stroke="#6600FF" stroke-width="6"></path></g></svg>