<svg id="visual" viewBox="0 0 1920 1080" width="1920" height="1080" xmlns="http://www.w3.org/2000/svg" xmlns:xlink="http://www.w3.org/1999/xlink" version="1.1"><rect x="0" y="0" width="1920" height="1080" fill="#000000"></rect><defs><linearGradient id="grad1_0" x1="43.8%" y1="100%" x2="100%" y2="0%"><stop offset="14.444444444444446%" stop-color="#6600ff" stop-opacity="1"></stop><stop offset="85.55555555555554%" stop-color="#6600ff" stop-opacity="1"></stop></linearGradient></defs><defs><linearGradient id="grad1_1" x1="43.8%" y1="100%" x2="100%" y2="0%"><stop offset="14.444444444444446%" stop-color="#6600ff" stop-opacity="1"></stop><stop offset="85.55555555555554%" stop-color="#0000c7" stop-opacity="1"></stop></linearGradient></defs><defs><linearGradient id="grad1_2" x1="43.8%" y1="100%" x2="100%" y2="0%"><stop offset="14.444444444444446%" stop-color="#000000" stop-opacity="1"></stop><stop offset="85.55555555555554%" stop-color="#0000c7" stop-opacity="1"></stop></linearGradient></defs><defs><linearGradient id="grad2_0" x1="0%" y1="100%" x2="56.3%" y2="0%"><stop offset="14.444444444444446%" stop-color="#6600ff" stop-opacity="1"></stop><stop offset="85.55555555555554%" stop-color="#6600ff" stop-opacity="1"></stop></linearGradient></defs><defs><linearGradient id="grad2_1" x1="0%" y1="100%" x2="56.3%" y2="0%"><stop offset="14.444444444444446%" stop-color="#0000c7" stop-opacity="1"></stop><stop offset="85.55555555555554%" stop-color="#6600ff" stop-opacity="1"></stop></linearGradient></defs><defs><linearGradient id="grad2_2" x1="0%" y1="100%" x2="56.3%" y2="0%"><stop offset="14.444444444444446%" stop-color="#0000c7" stop-opacity="1"></stop><stop offset="85.55555555555554%" stop-color="#000000" stop-opacity="1"></stop></linearGradient></defs><g transform="translate(1920, 1080)"><path d="M-864 0C-844.9 -157.2 -825.9 -314.4 -748.2 -432C-670.6 -549.6 -534.5 -627.4 -400 -692.8C-265.5 -758.2 -132.8 -811.1 0 -864L0 0Z" fill="#0000ac"></path><path d="M-576 0C-563.3 -104.8 -550.6 -209.6 -498.8 -288C-447.1 -366.4 -356.3 -418.3 -266.7 -461.9C-177 -505.5 -88.5 -540.7 0 -576L0 0Z" fill="#4000e3"></path><path d="M-288 0C-281.6 -52.4 -275.3 -104.8 -249.4 -144C-223.5 -183.2 -178.2 -209.1 -133.3 -230.9C-88.5 -252.7 -44.3 -270.4 0 -288L0 0Z" fill="#6600ff"></path></g><g transform="translate(0, 0)"><path d="M864 0C742.3 93 620.6 186.1 563.8 325.5C507 464.9 515.1 650.8 432 748.2C348.9 845.7 174.4 854.9 0 864L0 0Z" fill="#0000ac"></path><path d="M576 0C494.9 62 413.7 124 375.9 217C338 310 343.4 433.8 288 498.8C232.6 563.8 116.3 569.9 0 576L0 0Z" fill="#4000e3"></path><path d="M288 0C247.4 31 206.9 62 187.9 108.5C169 155 171.7 216.9 144 249.4C116.3 281.9 58.1 285 0 288L0 0Z" fill="#6600ff"></path></g></svg>