<svg id="visual" viewBox="0 0 900 600" width="900" height="600" xmlns="http://www.w3.org/2000/svg" xmlns:xlink="http://www.w3.org/1999/xlink" version="1.1"><rect x="0" y="0" width="900" height="600" fill="#001220"></rect><defs><linearGradient id="grad1_0" x1="33.3%" y1="0%" x2="100%" y2="100%"><stop offset="20%" stop-color="#001220" stop-opacity="1"></stop><stop offset="80%" stop-color="#001220" stop-opacity="1"></stop></linearGradient></defs><defs><linearGradient id="grad2_0" x1="0%" y1="0%" x2="66.7%" y2="100%"><stop offset="20%" stop-color="#001220" stop-opacity="1"></stop><stop offset="80%" stop-color="#001220" stop-opacity="1"></stop></linearGradient></defs><g transform="translate(900, 0)"><path d="M0 486.7C-60.3 467.6 -120.6 448.5 -175.3 423.1C-230 397.8 -279.1 366.3 -327.4 327.4C-375.7 288.5 -423.3 242.1 -449.7 186.3C-476.1 130.5 -481.4 65.2 -486.7 0L0 0Z" fill="#6600FF"></path></g><g transform="translate(0, 600)"><path d="M0 -486.7C64.9 -481.7 129.7 -476.6 186.3 -449.7C242.8 -422.8 291.1 -373.9 322.4 -322.4C353.8 -271 368.1 -216.8 392.6 -162.6C417.2 -108.5 452 -54.2 486.7 0L0 0Z" fill="#6600FF"></path></g></svg>