<svg id="visual" viewBox="0 0 1920 1080" width="1920" height="1080" xmlns="http://www.w3.org/2000/svg" xmlns:xlink="http://www.w3.org/1999/xlink" version="1.1"><g transform="translate(941.8357618092506 465.87970479035926)"><path d="M290 -459.8C363.3 -459.9 401.6 -357 460 -263.2C518.3 -169.3 596.6 -84.7 599.5 1.7C602.4 88 529.8 176 450.5 233.4C371.2 290.9 285.1 317.8 208.9 382.5C132.7 447.1 66.3 549.6 -22.9 589.3C-112.2 628.9 -224.3 605.9 -261.7 518.8C-299.1 431.7 -261.7 280.6 -312.8 183.5C-363.9 86.3 -503.4 43.2 -547.2 -25.2C-590.9 -93.7 -538.8 -187.3 -470.1 -254C-401.5 -320.7 -316.2 -360.4 -235.1 -355.8C-154 -351.1 -77 -302.1 15.7 -329.3C108.3 -356.4 216.7 -459.7 290 -459.8" fill="none" stroke="#6600FF" stroke-width="6"></path></g></svg>