<svg id="visual" viewBox="0 0 1920 1080" width="1920" height="1080" xmlns="http://www.w3.org/2000/svg" xmlns:xlink="http://www.w3.org/1999/xlink" version="1.1"><rect x="0" y="0" width="1920" height="1080" fill="#000000"></rect><defs><linearGradient id="grad1_0" x1="43.8%" y1="100%" x2="100%" y2="0%"><stop offset="14.444444444444446%" stop-color="#6600ff" stop-opacity="1"></stop><stop offset="85.55555555555554%" stop-color="#6600ff" stop-opacity="1"></stop></linearGradient></defs><defs><linearGradient id="grad1_1" x1="43.8%" y1="100%" x2="100%" y2="0%"><stop offset="14.444444444444446%" stop-color="#6600ff" stop-opacity="1"></stop><stop offset="85.55555555555554%" stop-color="#0000c7" stop-opacity="1"></stop></linearGradient></defs><defs><linearGradient id="grad1_2" x1="43.8%" y1="100%" x2="100%" y2="0%"><stop offset="14.444444444444446%" stop-color="#000000" stop-opacity="1"></stop><stop offset="85.55555555555554%" stop-color="#0000c7" stop-opacity="1"></stop></linearGradient></defs><defs><linearGradient id="grad2_0" x1="0%" y1="100%" x2="56.3%" y2="0%"><stop offset="14.444444444444446%" stop-color="#6600ff" stop-opacity="1"></stop><stop offset="85.55555555555554%" stop-color="#6600ff" stop-opacity="1"></stop></linearGradient></defs><defs><linearGradient id="grad2_1" x1="0%" y1="100%" x2="56.3%" y2="0%"><stop offset="14.444444444444446%" stop-color="#0000c7" stop-opacity="1"></stop><stop offset="85.55555555555554%" stop-color="#6600ff" stop-opacity="1"></stop></linearGradient></defs><defs><linearGradient id="grad2_2" x1="0%" y1="100%" x2="56.3%" y2="0%"><stop offset="14.444444444444446%" stop-color="#0000c7" stop-opacity="1"></stop><stop offset="85.55555555555554%" stop-color="#000000" stop-opacity="1"></stop></linearGradient></defs><g transform="translate(1920, 1080)"><path d="M-972 0C-832.6 -103.2 -693.2 -206.5 -629.6 -363.5C-566 -520.5 -578.3 -731.4 -486 -841.8C-393.7 -952.2 -196.9 -962.1 0 -972L0 0Z" fill="#0000ac"></path><path d="M-648 0C-555.1 -68.8 -462.1 -137.6 -419.7 -242.3C-377.4 -347 -385.5 -487.6 -324 -561.2C-262.5 -634.8 -131.2 -641.4 0 -648L0 0Z" fill="#4000e3"></path><path d="M-324 0C-277.5 -34.4 -231.1 -68.8 -209.9 -121.2C-188.7 -173.5 -192.8 -243.8 -162 -280.6C-131.2 -317.4 -65.6 -320.7 0 -324L0 0Z" fill="#6600ff"></path></g><g transform="translate(0, 0)"><path d="M972 0C950.6 177 929.2 354 841.8 486C754.3 618 600.8 705.1 449.5 778.6C298.2 852.1 149.1 912 0 972L0 0Z" fill="#0000ac"></path><path d="M648 0C633.7 118 619.5 236 561.2 324C502.9 412 400.5 470 299.7 519C198.8 568 99.4 608 0 648L0 0Z" fill="#4000e3"></path><path d="M324 0C316.9 59 309.7 118 280.6 162C251.4 206 200.3 235 149.8 259.5C99.4 284 49.7 304 0 324L0 0Z" fill="#6600ff"></path></g></svg>