<svg id="visual" viewBox="0 0 1920 1080" width="1920" height="1080" xmlns="http://www.w3.org/2000/svg" xmlns:xlink="http://www.w3.org/1999/xlink" version="1.1"><g transform="translate(886.0903885891139 530.238889427469)"><path d="M293.8 -476.8C391.2 -452.6 487.9 -395 513 -310C538 -225 491.5 -112.5 482.1 -5.4C472.8 101.7 500.5 203.3 462.2 265.4C423.9 327.5 319.4 349.9 231.4 397.9C143.3 445.9 71.7 519.5 6.2 508.8C-59.3 498.1 -118.7 403.2 -192.1 346.8C-265.6 290.4 -353.2 272.4 -369.5 221.1C-385.9 169.7 -330.9 84.8 -294 21.3C-257.1 -42.2 -238.1 -84.4 -219.7 -132.2C-201.3 -179.9 -183.4 -233.3 -146.9 -292.7C-110.3 -352.1 -55.2 -417.6 21.5 -454.8C98.2 -492 196.3 -501.1 293.8 -476.8" fill="none" stroke="#6600FF" stroke-width="6"></path></g></svg>