<svg id="visual" viewBox="0 0 900 600" width="900" height="600" xmlns="http://www.w3.org/2000/svg" xmlns:xlink="http://www.w3.org/1999/xlink" version="1.1"><rect x="0" y="0" width="900" height="600" fill="#001220"></rect><defs><linearGradient id="grad1_0" x1="33.3%" y1="0%" x2="100%" y2="100%"><stop offset="20%" stop-color="#001220" stop-opacity="1"></stop><stop offset="80%" stop-color="#001220" stop-opacity="1"></stop></linearGradient></defs><defs><linearGradient id="grad2_0" x1="0%" y1="0%" x2="66.7%" y2="100%"><stop offset="20%" stop-color="#001220" stop-opacity="1"></stop><stop offset="80%" stop-color="#001220" stop-opacity="1"></stop></linearGradient></defs><g transform="translate(900, 0)"><path d="M0 486.7C-69.6 486.4 -139.1 486 -186.3 449.7C-233.4 413.4 -258.1 341.2 -289.9 289.9C-321.7 238.6 -360.5 208.2 -394.5 163.4C-428.5 118.6 -457.6 59.3 -486.7 0L0 0Z" fill="#6600FF"></path></g><g transform="translate(0, 600)"><path d="M0 -486.7C59.5 -474.5 119 -462.2 183.3 -442.5C247.6 -422.9 316.7 -395.8 344.2 -344.2C371.6 -292.6 357.4 -216.4 374.2 -155C391 -93.5 438.9 -46.8 486.7 0L0 0Z" fill="#6600FF"></path></g></svg>