<?xml version="1.0" standalone="no"?>
<!DOCTYPE svg PUBLIC "-//W3C//DTD SVG 20010904//EN"
 "http://www.w3.org/TR/2001/REC-SVG-20010904/DTD/svg10.dtd">
<svg version="1.0" xmlns="http://www.w3.org/2000/svg"
 width="883.000000pt" height="882.000000pt" viewBox="0 0 883.000000 882.000000"
 preserveAspectRatio="xMidYMid meet">

<g transform="translate(0.000000,882.000000) scale(0.100000,-0.100000)"
fill="#000000" stroke="none">
<path d="M277 8759 c-98 -8 -157 -42 -202 -113 l-30 -49 -5 -4121 c-3 -2267
-2 -4165 2 -4218 4 -53 13 -107 20 -120 23 -41 72 -89 110 -109 36 -18 75 -19
1233 -19 1164 0 1197 1 1234 19 41 22 96 78 114 120 9 20 13 853 17 3486 l5
3460 1115 0 1115 0 90 -23 c213 -53 385 -142 544 -281 162 -141 324 -389 373
-571 32 -120 58 -282 58 -365 0 -63 -22 -222 -39 -285 -6 -19 -14 -51 -19 -70
-30 -112 -119 -283 -207 -396 -150 -192 -364 -347 -577 -418 -195 -65 -320
-76 -849 -76 -455 0 -451 1 -511 -70 -107 -124 -58 -329 91 -379 46 -15 889
-15 1026 0 225 25 381 68 557 152 358 173 631 442 802 790 133 269 181 475
181 772 -1 171 -5 217 -37 365 -32 152 -63 237 -145 398 -236 461 -689 796
-1218 901 -145 29 -245 31 -1422 31 -1163 0 -1213 -1 -1255 -19 -49 -21 -100
-67 -126 -115 -16 -29 -17 -242 -22 -3488 -3 -2406 -8 -3460 -16 -3468 -7 -7
-283 -9 -890 -8 l-879 3 -3 3908 -2 3907 3910 0 3910 0 0 -3898 c0 -3018 -3
-3901 -12 -3910 -9 -9 -272 -12 -1120 -12 -1106 0 -1108 0 -1153 -21 -84 -40
-128 -116 -128 -220 1 -85 56 -173 130 -205 50 -22 2554 -21 2606 1 46 19 103
75 121 120 13 29 15 623 17 4237 l2 4203 -21 40 c-21 41 -67 88 -112 115 -20
12 -73 15 -265 17 -570 6 -8047 7 -8118 2z"/>
<path d="M3232 4611 c-53 -14 -109 -57 -139 -108 -23 -40 -28 -59 -28 -118 0
-46 6 -82 17 -106 21 -43 78 -96 124 -115 49 -21 147 -18 193 5 133 68 173
247 81 364 -50 63 -164 99 -248 78z"/>
<path d="M4550 871 l0 -281 60 0 60 0 0 100 0 100 54 0 c90 0 162 34 190 92
25 49 21 148 -6 188 -41 59 -86 75 -230 79 l-128 3 0 -281z m235 163 c21 -14
25 -24 25 -64 0 -40 -4 -50 -25 -64 -13 -9 -45 -16 -70 -16 l-45 0 0 80 0 80
45 0 c25 0 57 -7 70 -16z"/>
<path d="M5047 1143 c-4 -3 -7 -130 -7 -280 l0 -274 58 3 57 3 3 102 c3 106 8
117 49 107 10 -3 32 -26 47 -52 16 -26 45 -73 65 -104 l36 -58 63 0 c35 0 62
3 60 8 -1 4 -36 55 -75 114 -40 59 -73 110 -73 114 0 4 17 22 38 40 105 90 61
240 -79 272 -54 13 -231 16 -242 5z m216 -105 c51 -27 59 -63 23 -104 -19 -23
-32 -28 -72 -28 l-49 -1 -3 73 -3 72 41 0 c23 0 51 -5 63 -12z"/>
<path d="M5661 1124 c-33 -17 -62 -41 -77 -64 -73 -111 -71 -282 5 -387 43
-59 105 -85 206 -85 122 1 191 38 236 129 20 41 23 63 23 153 0 89 -4 112 -23
153 -44 91 -113 127 -243 127 -60 0 -84 -5 -127 -26z m216 -91 c39 -26 56 -75
56 -167 -1 -113 -25 -158 -95 -176 -89 -25 -156 19 -177 115 -26 116 21 236
97 248 39 7 91 -2 119 -20z"/>
<path d="M6175 1137 c-3 -7 -4 -131 -3 -277 l3 -265 58 -3 57 -3 0 111 0 110
96 0 95 0 -3 48 -3 47 -92 3 -93 3 0 69 0 70 100 0 100 0 0 50 0 50 -155 0
c-116 0 -157 -3 -160 -13z"/>
<path d="M6610 870 l0 -281 58 3 c38 2 57 7 56 16 -1 6 -2 131 -2 277 l-2 265
-55 0 -55 0 0 -280z"/>
<path d="M6817 1143 c-4 -3 -7 -26 -7 -50 l0 -43 75 0 75 0 2 -227 3 -228 57
-3 58 -3 2 228 3 228 73 3 72 3 0 49 0 50 -203 0 c-112 0 -207 -3 -210 -7z"/>
<path d="M7435 1138 c-2 -7 -15 -47 -29 -88 -14 -41 -43 -127 -66 -190 -55
-155 -90 -257 -90 -265 0 -3 28 -5 62 -3 l61 3 20 63 20 62 98 0 c109 0 106 2
129 -75 l16 -50 62 -3 63 -3 -7 28 c-4 15 -10 35 -14 43 -5 8 -19 49 -33 90
-15 41 -45 127 -67 190 -23 63 -48 136 -57 163 l-16 47 -74 0 c-50 0 -75 -4
-78 -12z m95 -116 c0 -9 11 -53 25 -96 14 -43 25 -85 25 -92 0 -20 -118 -20
-126 0 -5 12 21 107 48 179 12 30 28 36 28 9z"/>
<path d="M7855 1137 c-3 -7 -4 -131 -3 -277 l3 -265 170 0 170 0 0 45 0 45
-112 3 -113 3 0 229 0 230 -55 0 c-36 0 -57 -5 -60 -13z"/>
</g>
</svg>
