<svg xmlns="http://www.w3.org/2000/svg" version="1.0" preserveAspectRatio="xMidYMid meet" viewBox="102.82 45.76 1181.68 1265.33">
<metadata>
Created by potrace 1.10, written by Peter Selinger 2001-2011
</metadata>
<g transform="translate(0.000000,3000.000000) scale(0.100000,-0.100000)" fill="#000000" stroke="none">
<path class="drawme" d="M1335 29539 c-69 -4 -100 -11 -134 -30 -57 -32 -106 -82 -139 -144 l-27 -50 -5 -5570 c-3 -3063 -2 -5620 1 -5681 6 -90 12 -120 32 -160 31 -61 102 -128 163 -154 45 -20 81 -20 1649 -20 1568 0 1604 0 1649 20 59 25 126 87 153 142 12 24 27 72 32 108 8 45 11 1494 11 4669 0 3497 3 4607 12 4618 10 12 230 13 1502 11 1654 -4 1492 3 1746 -69 113 -32 308 -122 406 -187 337 -224 610 -588 708 -942 103 -378 100 -621 -16 -990 -114 -365 -394 -714 -743 -925 -84 -50 -257 -135 -278 -135 -6 0 -29 -6 -52 -14 -48 -17 -123 -38 -225 -62 -67 -15 -147 -18 -740 -21 -766 -5 -739 -2 -825 -87 -167 -164 -107 -463 107 -530 54 -17 102 -18 700 -13 680 4 742 8 978 58 137 29 205 51 365 117 549 229 1016 696 1239 1242 15 36 31 74 36 85 22 48 76 235 109 377 24 105 36 253 36 448 0 250 -14 372 -61 536 -7 28 -14 62 -14 75 0 14 -4 29 -8 34 -5 6 -19 42 -31 80 -12 39 -28 84 -36 100 -7 17 -23 55 -36 85 -148 354 -462 724 -826 974 -46 31 -86 56 -90 56 -3 0 -14 6 -22 14 -41 35 -384 196 -418 196 -7 0 -27 6 -45 14 -56 23 -101 38 -143 47 -22 4 -78 17 -125 27 -201 47 -219 47 -1960 47 l-1645 0 -55 -26 c-70 -33 -126 -89 -159 -159 l-26 -55 -5 -4655 c-3 -2560 -9 -4661 -13 -4667 -6 -10 -258 -13 -1203 -13 l-1194 0 0 5275 0 5275 5273 -2 5272 -3 3 -5253 c1 -3560 -1 -5259 -8 -5272 -10 -19 -46 -20 -1513 -22 l-1502 -3 -66 -32 c-53 -26 -74 -43 -102 -85 -39 -58 -67 -141 -67 -199 0 -20 9 -67 21 -105 17 -56 31 -77 77 -124 37 -36 71 -60 98 -68 32 -9 441 -12 1747 -12 1674 0 1706 0 1751 20 64 27 139 100 167 163 l24 52 0 5670 0 5670 -24 53 c-27 61 -102 132 -166 161 -43 19 -153 19 -5637 23 -3076 1 -5633 0 -5683 -3z"/>
<path class="drawme" d="M5345 23941 c-99 -28 -161 -79 -211 -171 -15 -28 -19 -56 -19 -135 0 -114 16 -156 85 -225 69 -69 111 -85 225 -85 85 0 106 3 143 23 150 80 217 268 147 415 -68 145 -225 221 -370 178z"/>
<path class="drawme" d="M8710 19271 c-180 -40 -264 -163 -263 -381 0 -120 15 -178 64 -250 61 -89 156 -132 293 -132 197 1 316 106 346 304 19 126 -8 264 -67 344 -28 38 -92 83 -142 102 -44 16 -183 24 -231 13z m197 -157 c51 -37 75 -96 81 -194 11 -197 -77 -302 -229 -274 -73 14 -110 50 -135 133 -41 134 4 309 90 347 46 21 158 14 193 -12z"/>
<path class="drawme" d="M7126 19255 c-3 -9 -6 -175 -6 -369 0 -260 3 -355 12 -364 16 -16 110 -15 131 1 14 10 17 34 19 132 l3 120 73 7 c142 14 197 41 246 122 27 43 31 58 31 125 0 63 -4 84 -25 121 -50 90 -110 112 -321 117 -139 4 -157 3 -163 -12z m318 -150 c22 -20 26 -33 26 -75 0 -44 -5 -56 -29 -81 -27 -26 -36 -29 -95 -29 l-66 0 0 105 0 105 69 0 c58 0 72 -3 95 -25z"/>
<path class="drawme" d="M7792 19258 c-9 -9 -12 -105 -12 -370 0 -343 1 -358 19 -368 25 -13 82 -13 115 0 25 9 25 10 28 142 l3 133 33 3 c45 4 57 -8 142 -149 40 -66 81 -124 91 -129 10 -6 45 -10 79 -10 47 0 62 4 67 16 3 9 2 23 -3 30 -114 165 -174 260 -174 278 0 14 11 28 30 40 17 9 44 41 60 69 34 60 38 111 15 178 -39 109 -132 148 -355 149 -85 0 -130 -4 -138 -12z m311 -152 c36 -33 43 -70 24 -112 -14 -28 -26 -36 -74 -50 -39 -11 -65 -14 -82 -8 -25 9 -26 14 -29 88 -2 44 -1 85 2 93 4 9 25 13 69 13 54 0 68 -4 90 -24z"/>
<path class="drawme" d="M9322 19258 c-9 -9 -12 -102 -12 -370 0 -404 -6 -378 82 -378 74 0 77 6 80 160 l3 135 115 3 c63 1 119 7 124 12 13 13 8 100 -5 117 -8 9 -43 13 -125 13 l-114 0 0 90 0 90 123 0 c67 0 128 4 135 9 9 5 12 26 10 67 l-3 59 -200 3 c-148 2 -204 -1 -213 -10z"/>
<path class="drawme" d="M9902 19258 c-9 -9 -12 -105 -12 -370 l0 -358 26 -10 c36 -14 97 -12 118 3 16 11 17 41 16 366 0 242 -4 359 -11 368 -14 17 -120 18 -137 1z"/>
<path class="drawme" d="M10183 19263 c-8 -3 -13 -26 -13 -63 0 -69 1 -70 116 -70 l84 0 0 -292 c0 -161 4 -299 9 -307 13 -20 111 -26 134 -9 16 12 18 38 20 308 l2 295 95 5 95 5 9 38 c6 23 6 48 0 65 l-9 27 -265 2 c-146 1 -271 -1 -277 -4z"/>
<path class="drawme" d="M11021 19256 c-7 -8 -16 -27 -20 -43 -5 -15 -32 -93 -61 -173 -28 -80 -62 -176 -75 -215 -67 -197 -86 -246 -97 -264 -20 -33 5 -51 71 -51 76 0 93 15 116 95 11 36 25 71 32 77 18 14 251 14 265 0 13 -13 47 -110 48 -135 0 -25 46 -39 108 -34 56 4 77 20 62 47 -8 15 -38 98 -95 265 -27 77 -78 221 -88 245 -4 8 -16 44 -28 80 -42 124 -37 120 -138 120 -64 0 -92 -4 -100 -14z m123 -183 c4 -16 20 -70 37 -121 17 -52 28 -100 25 -108 -4 -12 -23 -14 -88 -12 -81 3 -83 3 -82 28 1 14 7 40 13 58 6 17 16 47 22 65 6 17 14 46 16 62 6 32 31 67 43 60 4 -3 11 -17 14 -32z"/>
<path class="drawme" d="M11593 19262 c-9 -6 -13 -97 -13 -367 -1 -337 0 -360 17 -373 14 -10 64 -12 226 -10 230 3 227 2 227 69 0 65 -8 68 -165 71 l-140 3 -3 294 c-1 197 -6 299 -13 308 -12 14 -115 18 -136 5z"/>
<path class="drawme" d="M2803 17324 c-13 -13 -23 -31 -23 -40 0 -10 -6 -45 -14 -78 -7 -34 -21 -97 -31 -141 -9 -44 -20 -95 -25 -113 -12 -46 8 -62 73 -62 81 1 171 23 210 53 56 43 90 123 91 215 2 129 -36 169 -171 181 -83 7 -89 6 -110 -15z m137 -69 c16 -8 34 -24 40 -34 16 -32 12 -109 -10 -156 -39 -86 -151 -128 -150 -56 2 58 48 235 66 248 22 16 19 16 54 -2z"/>
<path class="drawme" d="M3239 17336 c-16 -8 -27 -24 -32 -51 -10 -49 -30 -140 -58 -269 -22 -97 -22 -99 -3 -113 21 -15 64 -9 76 10 4 7 8 24 8 39 0 15 5 39 11 55 6 15 15 51 19 78 4 28 16 84 25 125 10 41 18 86 19 99 1 30 -32 44 -65 27z"/>
<path class="drawme" d="M3526 17337 c-61 -17 -140 -100 -160 -167 -37 -123 -9 -227 69 -264 31 -14 55 -17 117 -14 87 5 113 20 123 72 4 17 13 59 22 94 20 82 12 92 -73 92 -44 0 -67 -5 -78 -16 -20 -20 -20 -48 -1 -64 8 -7 15 -9 15 -6 0 4 9 2 21 -4 16 -9 19 -17 14 -38 -10 -40 -24 -52 -60 -52 -75 0 -110 70 -81 161 39 118 113 159 223 124 17 -6 25 -1 38 25 19 36 15 42 -34 59 -41 13 -102 12 -155 -2z"/>
<path class="drawme" d="M4487 17341 c-10 -4 -46 -58 -79 -121 -103 -198 -139 -264 -150 -282 -26 -37 42 -66 77 -32 8 9 23 30 32 47 21 43 29 47 95 47 62 0 78 -13 78 -65 0 -34 37 -52 70 -35 20 11 22 17 16 64 -4 28 -11 103 -16 167 -11 136 -23 199 -42 210 -16 10 -56 10 -81 0z m34 -184 c1 -32 -2 -62 -8 -68 -13 -13 -73 -2 -73 12 0 22 62 131 70 123 5 -5 10 -35 11 -67z"/>
<path class="drawme" d="M5903 17328 c-11 -13 -60 -99 -108 -193 -48 -93 -92 -174 -96 -179 -12 -14 -11 -53 1 -61 6 -4 24 -4 41 0 23 5 35 18 54 56 l25 49 65 0 c70 0 76 -4 85 -59 7 -43 50 -66 76 -40 13 14 13 31 4 130 -21 232 -31 294 -48 307 -26 20 -76 15 -99 -10z m57 -168 c0 -31 -5 -61 -12 -68 -14 -14 -47 -15 -68 -2 -16 10 -9 30 43 118 25 43 37 28 37 -48z"/>
<path class="drawme" d="M7670 17332 c-15 -12 -26 -38 -35 -83 -7 -35 -20 -98 -30 -139 -9 -41 -20 -95 -24 -120 -4 -25 -10 -50 -14 -57 -9 -14 19 -43 42 -43 39 0 49 24 92 229 42 197 42 204 24 217 -24 18 -28 18 -55 -4z"/>
<path class="drawme" d="M8150 17332 c-12 -10 -24 -37 -29 -67 -5 -27 -15 -77 -21 -110 -7 -33 -14 -71 -17 -84 -8 -43 -30 -4 -75 134 l-43 130 -53 3 c-36 2 -53 -1 -56 -10 -17 -63 -30 -120 -36 -158 -4 -25 -13 -67 -20 -95 -40 -163 -38 -155 -23 -171 22 -21 56 -13 70 16 6 14 22 78 36 143 24 116 31 136 43 124 3 -3 23 -63 45 -134 41 -132 60 -163 104 -163 39 0 62 30 74 95 6 33 22 114 36 180 14 66 25 132 25 146 0 33 -32 44 -60 21z"/>
<path class="drawme" d="M8435 17336 c-57 -21 -97 -51 -126 -95 -74 -113 -68 -265 14 -325 35 -26 144 -33 202 -14 36 12 42 19 56 63 25 78 34 166 17 176 -24 15 -125 10 -142 -7 -30 -30 -16 -67 29 -76 16 -3 19 -10 17 -33 -5 -42 -19 -55 -61 -55 -59 0 -81 31 -81 113 0 55 5 75 25 107 41 65 134 99 185 68 28 -18 54 0 58 39 3 27 -1 31 -36 41 -48 15 -116 14 -157 -2z"/>
<path class="drawme" d="M9012 17333 c-11 -10 -56 -88 -100 -173 -44 -85 -89 -172 -101 -193 -27 -49 -27 -65 3 -73 34 -8 61 9 88 58 l23 43 70 0 70 0 3 -38 c4 -48 40 -76 77 -59 28 13 29 15 15 97 -6 33 -15 116 -20 184 -11 144 -23 171 -74 171 -19 0 -43 -8 -54 -17z m42 -129 c3 -9 6 -37 6 -64 0 -40 -4 -50 -20 -55 -26 -8 -60 3 -60 20 0 19 49 115 59 115 5 0 12 -7 15 -16z"/>
<path class="drawme" d="M9414 17334 c-106 -38 -167 -134 -168 -266 -1 -86 12 -114 74 -155 59 -41 222 -26 239 20 5 12 16 60 26 105 21 105 16 112 -71 112 -57 0 -65 -3 -80 -25 -21 -32 -13 -51 25 -60 26 -5 31 -12 31 -34 0 -60 -79 -83 -125 -36 -20 19 -25 34 -25 75 0 138 112 235 216 188 23 -11 28 -10 45 11 28 34 24 49 -17 66 -45 19 -116 18 -170 -1z"/>
<path class="drawme" d="M10098 17328 c-10 -10 -18 -22 -18 -27 0 -5 -14 -74 -31 -153 -46 -214 -47 -221 -42 -234 8 -21 35 -25 58 -10 18 12 26 36 44 128 30 156 30 158 40 158 10 0 32 -54 56 -135 44 -150 63 -174 127 -160 32 8 31 4 83 250 19 93 33 175 31 182 -8 20 -64 16 -74 -4 -5 -10 -17 -58 -26 -108 -22 -114 -35 -157 -48 -153 -9 3 -21 34 -68 185 -25 81 -31 89 -79 95 -24 4 -39 0 -53 -14z"/>
<path class="drawme" d="M10651 17336 c-87 -28 -161 -151 -161 -267 0 -76 26 -128 81 -158 74 -42 209 -16 209 39 0 24 -19 30 -83 23 -50 -5 -58 -3 -81 20 -49 49 -30 177 36 240 43 41 75 47 136 25 30 -11 35 -11 48 7 24 32 17 54 -22 70 -41 17 -113 18 -163 1z"/>
<path class="drawme" d="M10917 17335 c-13 -13 -14 -21 -1 -72 46 -190 48 -204 32 -276 -13 -59 -13 -70 -1 -83 17 -16 24 -17 56 -5 18 7 26 20 30 48 14 87 36 134 111 242 43 63 79 121 80 130 1 18 -32 26 -68 17 -12 -3 -39 -34 -65 -76 -24 -38 -48 -70 -52 -70 -14 0 -29 37 -35 84 -4 25 -12 50 -18 55 -24 19 -54 22 -69 6z"/>
<path class="drawme" d="M3846 17288 c-8 -29 -22 -89 -31 -133 -9 -44 -23 -103 -31 -131 -20 -73 -19 -121 5 -129 31 -10 68 11 74 42 50 238 77 379 73 390 -3 7 -21 13 -40 13 -34 0 -36 -2 -50 -52z"/>
<path class="drawme" d="M4017 17333 c-4 -3 -7 -19 -7 -35 0 -24 4 -28 28 -28 16 0 37 -6 47 -14 20 -14 21 -6 -27 -206 -23 -99 -26 -131 -10 -146 13 -13 57 -13 70 0 4 5 28 107 52 223 12 61 26 116 30 123 4 6 29 14 56 18 46 7 49 9 52 40 l3 32 -144 0 c-79 0 -147 -3 -150 -7z"/>
<path class="drawme" d="M4782 17328 c-5 -7 -29 -102 -52 -211 -33 -157 -39 -201 -30 -212 9 -11 36 -15 101 -15 97 0 134 9 141 37 9 35 -2 43 -60 43 -83 0 -88 6 -73 77 7 32 19 90 28 128 8 39 19 85 23 103 5 19 6 40 3 48 -6 17 -67 19 -81 2z"/>
<path class="drawme" d="M5270 17318 c-12 -27 -82 -352 -84 -387 -2 -34 26 -49 56 -29 21 14 28 32 42 110 9 51 20 105 22 121 3 15 9 25 14 22 9 -6 17 -65 24 -174 2 -48 8 -68 22 -78 21 -15 26 -16 56 -4 16 7 39 43 78 125 59 125 87 150 75 69 -4 -27 -13 -73 -21 -103 -18 -70 -18 -77 5 -90 35 -18 68 3 73 47 3 21 10 59 16 86 28 113 35 145 44 197 19 108 20 105 -43 108 -39 2 -59 -1 -68 -11 -6 -8 -42 -77 -80 -153 -80 -161 -84 -161 -96 11 -10 150 -12 155 -75 155 -43 0 -52 -3 -60 -22z"/>
<path class="drawme" d="M6216 17318 c-9 -12 -16 -33 -16 -45 0 -13 -6 -49 -14 -81 -8 -31 -22 -93 -31 -137 -9 -44 -20 -92 -25 -108 -6 -20 -4 -31 7 -42 34 -35 93 -3 93 51 0 45 25 104 44 104 8 0 25 -27 40 -67 35 -90 37 -93 79 -100 53 -8 56 13 17 102 l-33 75 47 50 c42 44 46 54 46 97 0 88 -49 123 -169 123 -61 0 -72 -3 -85 -22z m152 -86 c19 -35 -16 -82 -61 -82 -29 0 -30 0 -24 47 6 53 29 78 58 62 10 -5 23 -17 27 -27z"/>
<path class="drawme" d="M6595 17331 c-3 -6 -17 -66 -32 -133 -37 -179 -50 -240 -58 -265 -6 -18 -2 -25 19 -34 40 -19 72 0 80 48 17 92 26 114 48 111 20 -3 40 -43 57 -113 8 -35 50 -60 87 -51 30 8 31 29 3 93 -26 60 -49 125 -49 139 0 6 34 50 75 98 41 48 75 94 75 102 0 10 -12 14 -39 14 -44 0 -60 -12 -126 -95 -72 -90 -99 -93 -70 -6 24 74 18 95 -27 99 -20 2 -39 -2 -43 -7z"/>
<path class="drawme" d="M6976 17308 c-8 -18 -16 -46 -19 -63 -4 -16 -20 -97 -38 -179 -38 -181 -41 -176 96 -176 99 0 123 9 127 50 3 24 0 25 -57 28 -74 4 -85 13 -78 60 8 54 18 61 90 64 57 3 67 6 74 25 12 34 -13 53 -72 53 -57 0 -68 14 -49 60 14 33 28 39 110 42 54 3 55 4 55 33 l0 30 -113 3 -113 3 -13 -33z"/>
<path class="drawme" d="M7271 17314 c-14 -32 -7 -44 28 -44 15 0 35 -6 45 -13 17 -12 18 -19 6 -68 -6 -30 -19 -85 -27 -124 -8 -38 -19 -88 -25 -109 -8 -34 -7 -42 8 -53 24 -17 38 -16 62 5 15 13 28 55 52 172 18 85 38 161 46 169 7 8 32 17 55 20 44 6 66 28 56 55 -6 14 -26 16 -150 16 l-144 0 -12 -26z"/>
<path class="drawme" d="M9746 17328 c-19 -71 -30 -120 -36 -158 -4 -25 -13 -67 -20 -95 -6 -27 -17 -73 -24 -102 -7 -28 -9 -58 -5 -65 6 -9 40 -14 112 -16 103 -4 105 -3 125 23 32 41 20 54 -56 57 -66 3 -67 3 -70 33 -1 17 4 41 11 55 11 22 21 26 76 30 49 4 67 10 77 25 21 32 2 49 -63 55 l-58 5 2 33 c2 52 17 62 93 62 64 0 68 1 74 25 4 14 4 30 1 35 -10 16 -235 13 -239 -2z"/>
</g>
</svg>