<svg id="visual" viewBox="0 0 1920 1080" width="1920" height="1080" xmlns="http://www.w3.org/2000/svg" xmlns:xlink="http://www.w3.org/1999/xlink" version="1.1"><path d="M0 206L160 191.7C320 177.3 640 148.7 960 134.3C1280 120 1600 120 1760 120L1920 120L1920 0L1760 0C1600 0 1280 0 960 0C640 0 320 0 160 0L0 0Z" fill="#6198ff"></path><path d="M0 303L160 285C320 267 640 231 960 222C1280 213 1600 231 1760 240L1920 249L1920 118L1760 118C1600 118 1280 118 960 132.3C640 146.7 320 175.3 160 189.7L0 204Z" fill="#1c6fff"></path><path d="M0 379L160 361C320 343 640 307 960 294.3C1280 281.7 1600 292.3 1760 297.7L1920 303L1920 247L1760 238C1600 229 1280 211 960 220C640 229 320 265 160 283L0 301Z" fill="#0055d1"></path><path d="M0 476L160 458C320 440 640 404 960 391.5C1280 379 1600 390 1760 395.5L1920 401L1920 301L1760 295.7C1600 290.3 1280 279.7 960 292.3C640 305 320 341 160 359L0 377Z" fill="#004cbb"></path><path d="M0 606L160 586.2C320 566.3 640 526.7 960 512.2C1280 497.7 1600 508.3 1760 513.7L1920 519L1920 399L1760 393.5C1600 388 1280 377 960 389.5C640 402 320 438 160 456L0 474Z" fill="#0055d1"></path><path d="M0 811L160 803.8C320 796.7 640 782.3 960 791.3C1280 800.3 1600 832.7 1760 848.8L1920 865L1920 517L1760 511.7C1600 506.3 1280 495.7 960 510.2C640 524.7 320 564.3 160 584.2L0 604Z" fill="#1c6fff"></path><path d="M0 1081L160 1081C320 1081 640 1081 960 1081C1280 1081 1600 1081 1760 1081L1920 1081L1920 863L1760 846.8C1600 830.7 1280 798.3 960 789.3C640 780.3 320 794.7 160 801.8L0 809Z" fill="#6198ff"></path></svg>