<svg id="visual" viewBox="0 0 1920 1080" width="1920" height="1080" xmlns="http://www.w3.org/2000/svg" xmlns:xlink="http://www.w3.org/1999/xlink" version="1.1"><path d="M0 98L64 96.2C128 94.3 256 90.7 384 87.2C512 83.7 640 80.3 768 76.8C896 73.3 1024 69.7 1152 73.2C1280 76.7 1408 87.3 1536 89.2C1664 91 1792 84 1856 80.5L1920 77L1920 0L1856 0C1792 0 1664 0 1536 0C1408 0 1280 0 1152 0C1024 0 896 0 768 0C640 0 512 0 384 0C256 0 128 0 64 0L0 0Z" fill="#6198ff"></path><path d="M0 368L64 373.5C128 379 256 390 384 390C512 390 640 379 768 375.3C896 371.7 1024 375.3 1152 370C1280 364.7 1408 350.3 1536 352.2C1664 354 1792 372 1856 381L1920 390L1920 75L1856 78.5C1792 82 1664 89 1536 87.2C1408 85.3 1280 74.7 1152 71.2C1024 67.7 896 71.3 768 74.8C640 78.3 512 81.7 384 85.2C256 88.7 128 92.3 64 94.2L0 96Z" fill="#1c6fff"></path><path d="M0 509L64 518C128 527 256 545 384 550.3C512 555.7 640 548.3 768 550C896 551.7 1024 562.3 1152 555.2C1280 548 1408 523 1536 517.7C1664 512.3 1792 526.7 1856 533.8L1920 541L1920 388L1856 379C1792 370 1664 352 1536 350.2C1408 348.3 1280 362.7 1152 368C1024 373.3 896 369.7 768 373.3C640 377 512 388 384 388C256 388 128 377 64 371.5L0 366Z" fill="#0055d1"></path><path d="M0 649L64 654.3C128 659.7 256 670.3 384 668.5C512 666.7 640 652.3 768 652.3C896 652.3 1024 666.7 1152 661.3C1280 656 1408 631 1536 629.3C1664 627.7 1792 649.3 1856 660.2L1920 671L1920 539L1856 531.8C1792 524.7 1664 510.3 1536 515.7C1408 521 1280 546 1152 553.2C1024 560.3 896 549.7 768 548C640 546.3 512 553.7 384 548.3C256 543 128 525 64 516L0 507Z" fill="#004cbb"></path><path d="M0 725L64 730.3C128 735.7 256 746.3 384 746.3C512 746.3 640 735.7 768 741C896 746.3 1024 767.7 1152 762.2C1280 756.7 1408 724.3 1536 717.2C1664 710 1792 728 1856 737L1920 746L1920 669L1856 658.2C1792 647.3 1664 625.7 1536 627.3C1408 629 1280 654 1152 659.3C1024 664.7 896 650.3 768 650.3C640 650.3 512 664.7 384 666.5C256 668.3 128 657.7 64 652.3L0 647Z" fill="#0055d1"></path><path d="M0 833L64 836.5C128 840 256 847 384 848.7C512 850.3 640 846.7 768 850.3C896 854 1024 865 1152 859.7C1280 854.3 1408 832.7 1536 827.2C1664 821.7 1792 832.3 1856 837.7L1920 843L1920 744L1856 735C1792 726 1664 708 1536 715.2C1408 722.3 1280 754.7 1152 760.2C1024 765.7 896 744.3 768 739C640 733.7 512 744.3 384 744.3C256 744.3 128 733.7 64 728.3L0 723Z" fill="#1c6fff"></path><path d="M0 1081L64 1081C128 1081 256 1081 384 1081C512 1081 640 1081 768 1081C896 1081 1024 1081 1152 1081C1280 1081 1408 1081 1536 1081C1664 1081 1792 1081 1856 1081L1920 1081L1920 841L1856 835.7C1792 830.3 1664 819.7 1536 825.2C1408 830.7 1280 852.3 1152 857.7C1024 863 896 852 768 848.3C640 844.7 512 848.3 384 846.7C256 845 128 838 64 834.5L0 831Z" fill="#6198ff"></path></svg>