<?xml version="1.0" encoding="UTF-8" standalone="no"?>
<!-- Created with Inkscape (http://www.inkscape.org/) -->

<svg
   xmlns:dc="http://purl.org/dc/elements/1.1/"
   xmlns:cc="http://creativecommons.org/ns#"
   xmlns:rdf="http://www.w3.org/1999/02/22-rdf-syntax-ns#"
   xmlns:svg="http://www.w3.org/2000/svg"
   xmlns="http://www.w3.org/2000/svg"
   xmlns:sodipodi="http://sodipodi.sourceforge.net/DTD/sodipodi-0.dtd"
   xmlns:inkscape="http://www.inkscape.org/namespaces/inkscape"
   version="1.1"
   id="svg10277"
   xml:space="preserve"
   width="666.66669"
   height="666.66669"
   viewBox="0 0 666.66669 666.66669"
   sodipodi:docname="elephant-outline-low-poly-green.svg"
   inkscape:version="0.91 r13725"><metadata
     id="metadata10283"><rdf:RDF><cc:Work
         rdf:about=""><dc:format>image/svg+xml</dc:format><dc:type
           rdf:resource="http://purl.org/dc/dcmitype/StillImage" /><dc:title></dc:title><dc:description>remix by j4p4n</dc:description><cc:license
           rdf:resource="http://creativecommons.org/publicdomain/zero/1.0/" /></cc:Work><cc:License
         rdf:about="http://creativecommons.org/publicdomain/zero/1.0/"><cc:permits
           rdf:resource="http://creativecommons.org/ns#Reproduction" /><cc:permits
           rdf:resource="http://creativecommons.org/ns#Distribution" /><cc:permits
           rdf:resource="http://creativecommons.org/ns#DerivativeWorks" /></cc:License></rdf:RDF></metadata><defs
     id="defs10281"><clipPath
       clipPathUnits="userSpaceOnUse"
       id="clipPath10293"><path
         d="M 0,500 H 500 V 0 H 0 Z"
         id="path10291"
         inkscape:connector-curvature="0" /></clipPath></defs><sodipodi:namedview
     pagecolor="#ffffff"
     bordercolor="#666666"
     borderopacity="1"
     objecttolerance="10"
     gridtolerance="10"
     guidetolerance="10"
     inkscape:pageopacity="0"
     inkscape:pageshadow="2"
     inkscape:window-width="1916"
     inkscape:window-height="1035"
     id="namedview10279"
     showgrid="false"
     inkscape:zoom="0.35399999"
     inkscape:cx="333.33334"
     inkscape:cy="333.33334"
     inkscape:window-x="4"
     inkscape:window-y="1"
     inkscape:window-maximized="1"
     inkscape:current-layer="g10289" /><g
     id="g10285"
     inkscape:groupmode="layer"
     inkscape:label="elephant-outline-publicdomainvectors.org"
     transform="matrix(1.3333333,0,0,-1.3333333,0,666.66667)"><g
       id="g10287"><g
         id="g10289"
         clip-path="url(#clipPath10293)"><path
           d="m 463.042,191.867 4.857,8.723 -6.335,-29.769 z m -1.273,-66.932 -3.918,-7.016 1.364,19.431 z m -42.755,23.983 -4.171,6.201 3.913,20.258 z m -12.421,54.635 0.199,3.596 0.501,-0.67 z m -37.927,15.845 0.138,0.049 2.072,-2.868 -1.291,-12.628 z m -76.525,9.662 0.594,-0.533 -0.845,0.242 z m -84.597,-107.899 23.221,11.57 0.986,-7.982 z m -11.3,132.93 -0.797,-5.396 -0.382,5.735 z m -86.486,4.344 14.142,1.065 -20.088,-9.841 z m -11.661,-84.398 -3.156,62.529 3.864,5.704 z m -30.121,45.437 19.353,-88.484 -8.17,9.629 -11.479,78.808 z m -27.424,18.54 20.068,14.95 0.397,-1.673 0.565,-3.875 z M 60.117,255.083 39.24,239.53 58.468,262.032 Z m 94.664,155.774 -3.734,-0.396 -2.568,1.606 z m 308.037,-215.279 -4.297,60.209 10.684,-48.741 z m -7.042,-78.662 -15.331,27.233 20.246,42.781 z m -16.374,25.011 15.43,-27.408 -28.276,-0.045 z m -19.745,-0.392 4.033,-26.232 -11.249,6.053 z m -5.094,10.417 4.372,-6.5 -6.168,-17.247 z m -4.176,-28.7 -4.981,5.401 6.824,18.975 z m 27.415,19.973 -12.33,-26.352 -4.246,27.624 z m -17.156,43.338 17.127,-41.331 -16.736,1.286 z m -18.423,-25.843 -4.277,15.054 6.075,35.08 0.906,-1.212 z m -3.187,3.898 2.787,-9.809 -1.508,-2.993 z m -2.746,7.368 2.291,-22.931 -14.647,-3.67 z m -10.638,-3.543 -4.322,-23.437 -21.225,2.456 z m -17.309,6.023 16.604,-4.014 -25.186,-20.686 z m 2.645,45.75 -0.009,-0.364 -0.208,0.287 z m -6.306,0.584 6.717,1.68 -8.615,-3.032 z m -3.284,0.117 -5.208,-3.708 -39.801,6.802 z m -66.344,11.521 19.728,-6.039 -17.729,0.952 -3.607,3.223 z m 7.161,25.783 -1.693,-16.375 -6.568,-7.618 v -0.001 l -6.791,-7.875 z m -28.091,-43.769 7.356,3.725 -11.253,-37.05 z m 1.334,-111.098 -2.27,23.26 3.159,-21.954 z m -20.078,3.731 17.244,-6.82 -21.174,-14.654 z m -21.559,5.325 14.19,-27.281 -31.205,10.24 z m -13.008,26.266 9.472,-2.063 0.219,-1.775 -24.587,-12.253 z m -13.543,5.016 11.454,-4.328 -15.6,-16.851 z m 11.753,-2.302 -11.588,4.379 -9.505,78.283 z m -14.748,110.391 1.893,-3.698 -9.773,-6.672 1.788,12.122 z m -20.525,8.929 7.337,0.342 -1.283,-3.193 -11.408,1.024 z m -10.481,-0.488 -0.22,-0.584 -1.209,0.517 z m -10.845,11.148 3.17,-8.545 -13.979,5.975 z m -29.031,11.15 13.275,-13.108 -16.399,-6.908 z m -2.177,-0.981 -3.077,-19.715 -16.461,-1.239 z m -22.627,-20.974 -0.277,-0.7 -1.466,-2.164 z M 90.283,130.657 93.567,224.129 97.74,141.437 Z M 71.868,100.813 70.947,99.055 54.088,94.785 Z m -27.122,3.073 6.846,-3.701 -17.818,-9.35 z m 28.264,-0.424 -17.362,-2.056 21.056,34.407 z m 2.406,3.439 3.526,30.881 8.989,-10.594 z m 8.783,115.138 3.486,-83.311 -17.729,81.059 z m -9.858,32.662 -2.146,-0.384 2.778,1.065 z m -9.727,-10.492 -1.414,6.468 8.883,1.589 z m 4.374,81.167 -6.513,-10.277 13.805,26.874 z m 65.443,59.327 -26.999,7.535 30.656,22.192 z m 31.36,14.183 -0.281,-0.102 c -0.016,-0.006 -0.026,-0.018 -0.041,-0.025 -0.015,-0.006 -0.031,-0.004 -0.046,-0.011 l -7.347,-3.465 -14.098,17.238 z m -7.413,6.993 -4.58,2.863 6.152,0.653 z m 3.436,-1.526 0.144,-0.712 -0.215,0.134 z m 8.508,-3.829 -2.139,-0.774 -3.888,2.43 -1.482,7.303 7.184,-0.504 z m 44.853,-0.984 -9.686,8.438 18.258,-6.2 z m 27.824,-21.227 -25.842,19.677 9.662,2.523 z m 15.817,9.398 -8.076,12.331 41.539,-13.315 z m 75.212,-13.556 -28.457,10.189 72.574,-2.031 z m 67.071,-9.226 -11.538,17.036 17.755,-0.745 z m 2.049,-0.24 6.155,16.124 14.771,-6.653 z m 37.491,-6.018 -4.256,5.137 4.531,-4.129 z m 10.984,-39.113 -8.172,34.049 23.194,-11.995 z m 9.637,-10.947 -8.786,8.644 13.849,20.333 z m 3.347,-34.087 3.726,-54.165 -10.682,48.731 z m -51.32,-20.222 42.347,13.84 5.202,-72.868 z m 24.497,-56.424 22.864,-6.362 -20.517,-43.356 z m -1.995,-0.165 2.263,-47.928 -17.156,41.402 z m -40.96,-24.124 -10.272,-22.115 3.466,18.8 z m -8.715,-1.362 -16.841,4.071 16.435,26.516 z m -7.061,50.826 5.455,-14.022 -11.585,8.329 0.083,3.566 z m -49.041,3.595 -7.014,-0.671 -18.746,5.737 z m -28.246,13.575 26.005,-11.095 -30.415,5.98 z m 38.153,18.092 -37.267,-15.325 2.049,19.833 z m -82.375,-72.998 14.079,24.965 -4.395,-37.579 z m 0.727,-4.232 8.696,-11.327 5.101,-52.261 z m -1.114,-4.302 16.199,-74.657 -17.725,7.011 z m -3.69,-69.043 -3.895,-21.277 -13.551,26.051 z m -29.885,99.391 29.549,-97.225 -18.142,4.965 z m -0.781,-9.988 7.223,-58.425 -8.538,1.858 z m -5.164,-42.235 -21.423,83.957 10.451,7.135 z m -8.012,95.335 0.643,-1.944 -2.146,0.358 -1.212,2.366 z m -0.79,2.389 0.03,-0.09 -0.73,0.21 z m -11.47,8.712 8.269,-6.134 -13.79,2.363 1.44,3.581 z m -37.958,11.927 2.218,0.255 0.099,-0.267 -4.603,-1.094 z m -2.776,0.878 -7.995,-3.87 -11.765,11.617 z m -31.452,3.849 -13.096,-14.046 2.591,6.541 z m -13.289,-8.165 -26.026,-42.752 2.384,39.256 z m -42.343,52.69 15.865,-52.525 -32.619,26.085 z m 23.331,25.891 -20.058,-19.288 17.174,39.086 z m 7.743,18.346 5.292,23.825 26.639,-7.435 z m 35.875,18.345 3.572,29.038 16.143,-19.739 z m 45.957,17.19 18.355,7.109 11.134,-9.7 z m 39.762,-25.454 -5.496,18.969 27.718,-21.105 z m 31.527,8.601 -9.688,-5.181 -3.189,4.375 z m -20.599,9.789 14.812,5.414 8.531,-13.027 -17.018,-1.066 z m 70.245,-14.953 -30.309,5.013 25.832,-0.76 z m 3.531,-0.595 -3.473,3.298 16.896,-6.049 z m 33.02,-6.469 47.22,8.731 12.076,-17.832 z m 65.805,-42.94 -3.327,31.889 22.097,10.001 z m 34.801,25.377 -32.834,-25.876 19.048,42.512 z m -33.095,-28.629 33.91,26.725 8.479,-35.327 z m 54.366,-28.12 2.601,-21.989 -6.53,-5.102 z m -5.151,-21.583 -4.178,37.118 8.368,-8.233 z m -6.164,36.878 4.954,-44.009 -41.517,-13.569 z m -13.063,-114.145 -21.699,48.019 43.589,-54.111 z m -40.601,20.399 3.922,-5.24 -4.293,-34.994 -8.704,25.902 z m -9.482,5.524 8.142,-3.902 -8.621,-13.614 -5.937,15.258 z m -50.328,-0.663 c 0.003,0 0.005,10e-4 0.008,0.002 0.012,0.001 0.024,0 0.035,0.002 l 33.597,4.708 -6.813,-7.266 -29.428,2.305 z m -0.823,2.392 -32.131,13.709 38.351,15.77 z m 10.65,60.194 -3.915,-27.954 -36.084,4.619 z m -72.122,-2.941 27.748,-21.252 -28.259,-45.08 z m -13.501,-56.232 10.763,-13.714 -14.238,-25.245 z m -26.219,-6.074 20.33,-37.66 -1.503,-66.599 z m -2.77,4.09 18.339,-101.563 -28.268,93.008 z m -21.231,19.311 9.175,-27.754 0.932,-7.538 -1.326,-57.019 -11.175,92.772 z m -0.335,15.912 c 0.013,10e-4 0.024,0.009 0.038,0.01 0.035,0.003 0.07,0.006 0.104,0.013 l -1.809,-6.79 -8.485,6.294 z m -1.082,46.569 0.034,-43.738 -54.062,34.725 z m -71.482,-20.287 c 0.01,0.01 0.014,0.024 0.024,0.034 0.031,0.031 0.059,0.064 0.087,0.1 0.017,0.023 0.033,0.045 0.048,0.069 0.009,0.013 0.022,0.024 0.03,0.037 0.008,0.014 0.011,0.031 0.018,0.045 0.003,0.008 0.009,0.013 0.013,0.021 0.003,0.007 0.009,0.012 0.013,0.02 0,0 0,0 0,10e-4 l 11.363,25.485 2.148,-14.129 c 0,-0.003 0.002,-0.005 0.002,-0.008 0.001,-0.002 0,-0.004 0,-0.006 0.002,-0.009 0.008,-0.016 0.009,-0.025 0.009,-0.047 0.032,-0.089 0.049,-0.134 0,-0.003 0.001,-0.005 0.002,-0.007 0.015,-0.041 0.017,-0.085 0.037,-0.124 10e-4,-10e-4 10e-4,-0.003 0.002,-0.005 l 2.885,-5.576 c -0.328,-0.216 -0.512,-0.616 -0.431,-1.026 l 3.381,-17.176 -23.236,9.111 z m -41.447,4.546 15.397,-20.911 -23.313,-3.448 z m -1.477,1.928 -7.854,-24.168 -15.179,50.258 z m -10.748,39.447 -8.305,-4.628 13.076,12.574 z m 7.416,37.824 11.301,15.412 -4.603,-20.728 z m 6.169,-7.449 -3.729,-11.986 -2.462,16.9 z m 22.429,0.691 -17.37,0.544 28.815,14.79 z m 48.604,27.212 9.363,8.197 28.119,-2.471 z m 10.606,-21.281 34.691,25.618 5.806,-20.039 z m 83.537,-68.911 -51.459,8.289 10.479,63.93 c 0.02,0.124 0.01,0.244 -0.013,0.36 l 24.815,-2.386 z m 5.582,70.849 -18.92,-4.07 -1.052,4.566 v 10e-4 c -0.003,0.012 -0.013,0.023 -0.016,0.035 -0.013,0.048 -0.036,0.089 -0.056,0.134 -0.021,0.049 -0.04,0.096 -0.07,0.142 -0.01,0.016 -0.013,0.036 -0.024,0.051 v 10e-4 l -3.402,4.667 12.791,6.84 z m 2.249,0.461 -10.189,11.724 39.641,-6.556 z m 71.239,-40.566 -33.438,44.252 24.284,-4.977 z m 65.169,-38.902 -1.253,31.143 42.128,-8.55 z m 0.15,-2.202 40.645,22.466 -36.011,-56.708 z m 4.015,-39.531 22.91,-50.698 -36.097,21.142 z m -24.677,-23.966 21.515,21.788 -11.798,-26.445 z m -5.278,-0.338 -14.108,-4.289 6.106,6.513 z m -5.528,25.95 -3.653,-21.711 -31.773,-4.453 z m -1.362,1.48 -36.307,-26.814 6.138,29.09 z m 27.395,35.751 -57.098,-30.6 3.949,28.2 z m -90.173,-2.426 32.453,-0.011 -38.976,-22.738 z m -2.11,-0.105 -6.617,-23.077 -26.818,20.541 z m -37.191,-10.514 -0.465,-60.225 -10.671,13.596 z m -58.096,-19.476 17.053,-29.857 -9.811,-8.454 z m -2.957,6.176 -0.034,43.646 50.337,-8.108 z m 60.93,73.683 0.185,-50.359 -18.508,4.105 10.828,7.873 0.024,0.017 c 0.001,0 0.001,10e-4 0.001,10e-4 l 0.006,0.004 c 0.01,0.008 0.016,0.02 0.027,0.028 0.065,0.05 0.115,0.113 0.166,0.178 0.022,0.028 0.053,0.047 0.07,0.076 0.002,0.003 0.003,0.006 0.005,0.009 0.003,0.005 0.005,0.01 0.008,0.014 0.044,0.074 0.068,0.16 0.091,0.246 0.009,0.031 0.028,0.058 0.034,0.09 v 0.007 c 10e-4,0.002 0.002,0.003 0.002,0.005 v 0.001 c 0.01,0.062 -0.004,0.124 -0.006,0.186 -0.002,0.064 0.008,0.128 -0.007,0.191 v 0.005 0.002 l -10e-4,0.001 -0.002,0.01 v 10e-4 l -6.911,29.985 z m -3.986,0.17 -10.466,-5.48 -1.011,4.388 z m 1.224,32.053 2.671,-29.673 -15.825,-1.506 -4.71,20.437 z m -19.483,-3.717 14.666,3.155 -13.52,-8.131 z m 24.022,-24.4 -2.608,28.971 32.145,5.641 z m 40.861,-14.716 -7.175,47.038 34.366,-45.48 z m 29.917,1.638 -9.628,41.313 66.107,-43.319 z m 59.094,-4.919 1.261,-31.295 -53.676,-2.424 z m -58.787,2.907 56.49,-2.008 -52.944,-34.059 z m -1.871,-1.398 3.478,-35.394 -33.632,0.012 z m -30.425,-1.883 -2.819,-33.565 -33.908,-2.572 z m -81.483,-48.419 6.262,4.554 34.527,5.31 -12.413,-51.982 z m -2.322,-1.688 0.703,0.512 28.671,-42.557 -24.883,-2.427 z m -8.517,-6.189 c 0.011,0.006 0.016,0.017 0.026,0.024 0.013,0.008 0.027,0.011 0.04,0.02 l 6.578,4.783 4,-39.614 -17.479,30.604 z m 31.275,22.737 16.25,-3.604 -26.895,-4.136 z m 23.205,49.96 30.497,35.735 7.333,-48.077 z m 37.19,-14.237 -37.733,-37.127 -0.182,49.497 z m 29.563,1.025 -29.55,-34.672 2.785,33.139 z m 35.033,-70.182 -29.779,2.247 55.375,29.676 z m 2.465,-0.123 26.295,32.796 4.62,-34.138 z m -4.848,-23.79 3.673,21.84 29.923,-1.3 z m 10.247,-4.184 -9.113,2.534 29.312,17.921 z m -207.407,139.628 42.712,5.884 -10.179,-62.1 z m -1.362,-1.64 32.841,-56.748 -54.688,-9.124 z m -29.683,-18.596 27.562,18.557 -20.834,-62.821 z m -9.201,-57.523 -17.952,28.345 29.648,-2.114 z m -2.358,-2.757 -20.863,-15.791 -15.519,21.077 z M 97.016,312.947 95.538,297.345 73.409,322.41 Z m -12.224,19.126 7.243,-12.354 -19.556,5.493 z m 29.241,-9.073 -27.41,10.917 7.461,12.427 z m 11.101,45.16 10.787,14.453 32.203,13.729 z m 40.095,23.591 -5.005,-2.98 6.372,4.178 z m 2.068,-1.598 43.769,6.686 -34.769,-25.675 z m -1.492,-1.522 8.837,-18.645 -26.712,-17.984 z m -21.097,-41.67 4.199,-27.628 -29.257,2.085 z m -27.392,-28.088 18.108,-28.591 -37.208,5.406 z m -18.298,-6.001 15.315,5.524 -16.714,-20.287 z m -5.422,4.331 0.985,-1.125 -7.072,2.835 z m 0.103,7.307 -0.275,-3.205 -4.215,7.188 z m 8.253,-4.648 -11.857,10.518 23.238,-9.254 z m 14.667,3.191 -21.148,24.747 24.32,14.561 z m 27.188,25.845 -25.166,-25.654 3.168,39.262 z m -20.936,15.303 40.577,24.162 -18.466,-37.841 z m -21.916,-46.129 h 0.001 l 10e-4,-10e-4 c 0.009,-0.008 0.021,-0.01 0.03,-0.018 0.03,-0.026 0.067,-0.04 0.1,-0.062 0.031,-0.02 0.051,-0.049 0.084,-0.066 l 1.559,-0.782 -4.413,-2.297 -1.845,2.108 1.543,3.726 z m -4.523,4.013 -1.177,-2.841 0.31,3.61 z m 3.48,41.79 17.594,-0.551 -21.831,-13.071 z m 110.728,-110.327 1.689,6.341 5.055,-26.743 z m 23.869,-25.755 24.847,2.423 -3.709,-41.581 z m 169.414,100.669 -65.579,42.975 62.09,-9.531 z m -243.995,-53.118 -2.82,14.323 7.156,-13.824 z m 228.182,-102.803 -0.363,27.342 7.946,-23.648 z m 31.82,20.406 -19.137,26.148 33.728,-19.754 z m -328.089,39.045 -2.764,-78.705 -2.941,70.284 z m -37.82,-132.793 10.54,1.248 -23.057,-7.815 z m 120.683,163.092 c -0.002,0 -0.003,0 -0.004,0 l -6.66,-0.311 -4.369,11.781 2.262,0.26 c 0.012,10e-4 0.022,0.009 0.034,0.011 0.106,0.016 0.211,0.042 0.311,0.094 0.006,0.003 0.009,0.009 0.014,0.012 0.073,0.039 0.13,0.097 0.19,0.152 0.036,0.033 0.081,0.058 0.112,0.096 0.041,0.051 0.063,0.114 0.094,0.172 0.029,0.055 0.067,0.105 0.085,0.164 0.015,0.049 0.011,0.103 0.018,0.154 0.011,0.078 0.028,0.155 0.02,0.235 0,0.006 0.002,0.012 0.002,0.018 -0.008,0.062 -0.038,0.113 -0.056,0.17 -0.018,0.058 -0.021,0.119 -0.05,0.175 l -11.254,21.741 51.998,-33.399 -14.87,-0.692 h -0.006 z m 1.874,-1.916 -1.279,-0.436 0.144,0.384 z m 99.375,-42.754 19.768,31.534 -13.36,-28.289 z M 53.112,293.267 85.835,267.099 78.054,258.706 62.71,252.821 Z m -10.551,-75.788 43.571,46.999 -2.46,-40.498 z m 330.168,-2.443 12.591,-9.051 -16.187,-26.12 z m 98.521,-8.163 c 0,0.029 0.013,0.055 0.011,0.085 l -3.177,46.178 0.52,3.774 c 0.005,0.041 -0.008,0.079 -0.008,0.12 10e-4,0.042 0.016,0.082 0.011,0.125 l -2.133,19.396 -0.88,24.166 v 0.006 0.006 c -10e-4,0.015 -0.01,0.027 -0.011,0.042 -0.009,0.113 -0.028,0.227 -0.078,0.336 l -2.549,5.588 6.136,35.115 c 0.003,0.016 -0.003,0.031 -10e-4,0.048 0.007,0.06 10e-4,0.118 -0.003,0.179 -0.003,0.05 0.004,0.1 -0.006,0.15 -0.005,0.02 -0.013,0.038 -0.018,0.058 -0.015,0.055 -0.043,0.104 -0.068,0.156 -0.021,0.046 -0.034,0.095 -0.063,0.138 -0.012,0.017 -0.025,0.03 -0.037,0.045 -0.037,0.048 -0.084,0.084 -0.13,0.125 -0.035,0.032 -0.057,0.072 -0.097,0.1 -0.004,0.002 -0.008,0.002 -0.011,0.004 -0.017,0.012 -0.038,0.017 -0.055,0.027 -0.015,0.009 -0.023,0.022 -0.038,0.03 l -24.442,12.641 -1.109,4.723 c -0.008,0.033 -0.03,0.056 -0.04,0.087 -0.016,0.048 -0.029,0.095 -0.052,0.14 -0.015,0.03 -0.033,0.056 -0.051,0.084 -0.029,0.045 -0.063,0.081 -0.099,0.121 -0.022,0.024 -0.033,0.056 -0.058,0.079 l -15.536,14.156 c -0.028,0.025 -0.062,0.033 -0.09,0.054 -0.008,0.006 -0.016,0.009 -0.024,0.015 -0.043,0.03 -0.082,0.066 -0.127,0.089 -0.009,0.004 -0.014,0.011 -0.022,0.015 l -0.002,10e-4 -17.739,7.99 h -10e-4 l -0.016,0.008 c -0.01,0.004 -0.02,0.003 -0.03,0.007 -0.009,0.003 -0.015,0.012 -0.024,0.015 -0.051,0.019 -0.103,0.015 -0.154,0.026 -0.054,0.011 -0.103,0.037 -0.161,0.039 l -21.126,0.886 c -0.002,0 -0.004,-10e-4 -0.007,-10e-4 -0.002,0 -0.005,0.002 -0.007,0.002 l -88.156,2.468 -50.83,16.294 c -0.017,0.005 -0.034,10e-4 -0.051,0.005 -0.023,0.006 -0.044,0.017 -0.067,0.021 -0.027,0.006 -0.056,0.004 -0.084,0.007 -0.042,0.004 -0.082,0.004 -0.125,0.003 -0.038,-0.001 -0.074,0 -0.112,-0.005 -0.024,-0.004 -0.047,-0.005 -0.071,-0.01 -0.01,-0.002 -0.02,0.001 -0.03,-10e-4 l -17.446,-4.213 -2.642,3.625 c -0.002,0.004 -0.007,0.005 -0.009,0.009 -0.022,0.028 -0.051,0.046 -0.075,0.072 -0.043,0.047 -0.089,0.087 -0.141,0.126 -0.026,0.019 -0.046,0.047 -0.074,0.063 -0.031,0.019 -0.069,0.024 -0.102,0.039 -0.03,0.013 -0.053,0.038 -0.085,0.049 l -26.218,8.902 c -0.001,0.001 -0.002,0 -0.004,0.001 -0.043,0.015 -0.089,0.011 -0.134,0.019 -0.049,0.01 -0.094,0.029 -0.145,0.031 -0.018,10e-4 -0.036,-0.006 -0.054,-0.006 -0.019,0 -0.037,0.007 -0.056,0.006 -0.039,-0.003 -0.073,-0.023 -0.111,-0.03 -0.011,-0.002 -0.02,-0.005 -0.03,-0.008 -0.043,-0.009 -0.085,-0.004 -0.127,-0.019 l -27.495,-9.94 -1.222,8.501 c -0.005,0.031 -0.024,0.056 -0.032,0.087 -0.011,0.046 -0.018,0.091 -0.036,0.135 -0.015,0.041 -0.032,0.078 -0.053,0.117 -0.02,0.035 -0.045,0.063 -0.069,0.096 l -0.003,0.005 c -0.022,0.03 -0.039,0.063 -0.064,0.09 -0.037,0.042 -0.077,0.077 -0.12,0.112 -0.019,0.014 -0.04,0.024 -0.06,0.037 -0.017,0.012 -0.035,0.023 -0.053,0.033 -0.024,0.014 -0.044,0.031 -0.068,0.043 -0.049,0.023 -0.098,0.041 -0.15,0.056 -0.039,0.011 -0.079,0.011 -0.119,0.018 -0.032,0.006 -0.06,0.023 -0.093,0.026 l -9.331,0.655 -17.922,3.439 -3.887,2.43 c -0.003,10e-4 -0.005,10e-4 -0.008,0.003 -0.005,0.002 -0.009,0.004 -0.014,0.007 -0.009,0.006 -0.018,0.01 -0.027,0.014 -0.055,0.031 -0.116,0.041 -0.176,0.061 -0.045,0.015 -0.087,0.041 -0.135,0.049 -0.011,0.002 -0.021,0.003 -0.032,0.004 -0.006,0.001 -0.01,0.006 -0.017,0.006 -0.004,10e-4 -0.007,-0.001 -0.01,-0.001 -0.057,0.006 -0.114,-0.008 -0.171,-0.011 -0.066,-0.004 -0.129,-0.001 -0.193,-0.018 -0.056,-0.015 -0.105,-0.047 -0.158,-0.071 -0.057,-0.026 -0.118,-0.042 -0.171,-0.079 -0.001,-10e-4 -0.004,-0.002 -0.005,-0.003 l -34.196,-24.753 c -0.035,-0.026 -0.054,-0.063 -0.084,-0.092 -0.04,-0.037 -0.086,-0.066 -0.12,-0.109 -0.002,-0.004 -0.007,-0.005 -0.009,-0.009 l -0.014,-0.019 c -0.001,-10e-4 -0.002,-10e-4 -0.002,-0.002 l -16.297,-21.7 c -0.024,-0.033 -0.031,-0.071 -0.05,-0.106 -0.024,-0.042 -0.056,-0.077 -0.075,-0.122 -0.01,-0.025 -0.012,-0.051 -0.02,-0.076 -0.019,-0.061 -0.025,-0.121 -0.032,-0.183 -0.005,-0.039 -0.023,-0.073 -0.023,-0.113 l -10e-4,-1.234 -37.273,-72.56 c -0.016,-0.031 -0.015,-0.065 -0.027,-0.097 -0.019,-0.048 -0.039,-0.093 -0.05,-0.142 -0.004,-0.018 -0.017,-0.034 -0.02,-0.053 -0.003,-0.015 0.003,-0.03 10e-4,-0.047 -0.005,-0.046 -0.002,-0.091 -10e-4,-0.137 10e-4,-0.049 10e-4,-0.095 0.009,-0.144 0.004,-0.02 0,-0.041 0.005,-0.061 0,-0.002 -0.001,-0.004 0,-0.007 l 7.4,-31.189 -25.968,-30.389 c -0.02,-0.024 -0.025,-0.052 -0.043,-0.076 -0.034,-0.048 -0.063,-0.095 -0.088,-0.148 -0.016,-0.033 -0.036,-0.062 -0.048,-0.098 -0.012,-0.035 -0.016,-0.07 -0.024,-0.106 -0.012,-0.054 -0.019,-0.105 -0.022,-0.16 -0.003,-0.038 -0.011,-0.073 -0.009,-0.111 0.002,-0.037 0.013,-0.071 0.019,-0.107 0.009,-0.056 0.023,-0.108 0.042,-0.164 0.01,-0.028 0.007,-0.06 0.02,-0.088 0.003,-0.008 0.01,-0.014 0.014,-0.021 0.01,-0.023 0.027,-0.04 0.039,-0.062 0.009,-0.016 0.02,-0.032 0.03,-0.048 0.013,-0.018 0.015,-0.04 0.028,-0.058 0.006,-0.008 0.015,-0.01 0.021,-0.018 0.031,-0.039 0.065,-0.072 0.101,-0.105 0.012,-0.012 0.017,-0.028 0.031,-0.039 0.014,-0.013 0.032,-0.016 0.046,-0.028 0.043,-0.032 0.086,-0.061 0.133,-0.087 0.025,-0.012 0.049,-0.023 0.074,-0.034 0.029,-0.013 0.055,-0.027 0.084,-0.037 0.099,-0.033 0.202,-0.054 0.307,-0.054 0.002,0 0.003,-0.001 0.005,-0.001 v 0 0 h 10e-4 c 0.124,0 0.246,0.032 0.364,0.078 0.014,0.005 0.029,0.003 0.043,0.009 l 28.785,12.87 0.516,-3.542 L 39.13,216.72 c -0.014,-0.015 -0.018,-0.034 -0.03,-0.05 -0.045,-0.054 -0.076,-0.114 -0.109,-0.177 -0.028,-0.055 -0.059,-0.106 -0.076,-0.164 -0.018,-0.058 -0.021,-0.119 -0.028,-0.181 -0.008,-0.069 -0.016,-0.136 -0.009,-0.206 0.002,-0.019 -0.006,-0.038 -0.003,-0.058 0.008,-0.051 0.034,-0.092 0.049,-0.14 0.016,-0.052 0.029,-0.102 0.054,-0.151 0.039,-0.078 0.092,-0.145 0.149,-0.208 0.022,-0.025 0.032,-0.056 0.057,-0.078 0.005,-0.005 0.012,-0.007 0.018,-0.012 0.07,-0.063 0.152,-0.107 0.237,-0.149 0.025,-0.011 0.046,-0.032 0.072,-0.041 0.11,-0.042 0.228,-0.065 0.351,-0.065 h 10e-4 v 0 h 10e-4 c 0.052,0 0.104,0.004 0.156,0.013 l 25.684,4.061 11.464,-78.71 -22.826,-37.299 -9.537,3.002 h -0.003 c -0.036,0.012 -0.073,0.006 -0.111,0.013 -0.06,0.012 -0.117,0.019 -0.177,0.02 -0.034,0 -0.066,0.011 -0.099,0.008 -0.036,-0.003 -0.067,-0.021 -0.102,-0.028 -0.059,-0.012 -0.114,-0.027 -0.17,-0.05 -0.033,-0.012 -0.067,-0.014 -0.098,-0.03 -0.03,-0.016 -0.05,-0.043 -0.079,-0.061 -0.052,-0.035 -0.099,-0.072 -0.145,-0.117 -0.025,-0.023 -0.057,-0.037 -0.079,-0.063 -10e-4,-0.001 -0.002,-0.001 -0.003,-0.002 L 28.971,88.23 C 28.97,88.229 28.97,88.228 28.969,88.226 28.951,88.204 28.944,88.178 28.928,88.155 28.906,88.123 28.883,88.095 28.864,88.062 28.845,88.026 28.834,87.99 28.819,87.953 28.81,87.929 28.79,87.909 28.782,87.884 c -0.008,-0.025 -0.003,-0.051 -0.009,-0.075 -0.008,-0.038 -0.019,-0.072 -0.023,-0.11 -0.004,-0.038 -0.001,-0.076 -0.001,-0.115 0,-0.028 -0.011,-0.055 -0.008,-0.083 0.002,-0.028 0.018,-0.054 0.023,-0.082 0.004,-0.025 -0.003,-0.051 0.004,-0.077 0.003,-0.015 0.013,-0.025 0.017,-0.039 0.004,-0.013 0,-0.025 0.005,-0.037 0.009,-0.028 0.027,-0.048 0.039,-0.075 0.009,-0.021 0.01,-0.044 0.021,-0.064 10e-4,-10e-4 0,-0.003 10e-4,-0.005 0.01,-0.018 0.025,-0.032 0.036,-0.05 0.012,-0.02 0.023,-0.041 0.037,-0.06 0.016,-0.023 0.034,-0.043 0.053,-0.065 0.029,-0.035 0.06,-0.066 0.092,-0.095 0.01,-0.009 0.014,-0.022 0.024,-0.031 0.006,-0.005 0.013,-0.006 0.019,-0.01 0.011,-0.009 0.021,-0.018 0.033,-0.026 0.015,-0.012 0.031,-0.02 0.046,-0.03 0.049,-0.032 0.101,-0.056 0.155,-0.078 0.021,-0.01 0.039,-0.026 0.061,-0.033 0.006,-0.001 0.01,-0.003 0.016,-0.004 0.01,-0.004 0.019,-0.005 0.029,-0.008 0.089,-0.028 0.182,-0.043 0.276,-0.044 0.002,0 0.005,-10e-4 0.008,-10e-4 v 0 h 10e-4 v 0 h 0.001 c 0.079,0 0.159,0.01 0.238,0.029 0.003,0.001 0.004,0 0.006,0.001 l 41.889,10.608 c 0.003,0.001 0.005,0.003 0.008,0.004 h 10e-4 c 0.027,0.007 0.052,0.021 0.078,0.03 0.055,0.019 0.109,0.039 0.161,0.068 0.025,0.015 0.048,0.034 0.072,0.051 0.021,0.015 0.042,0.028 0.062,0.045 0.025,0.02 0.05,0.04 0.073,0.062 0.026,0.026 0.046,0.055 0.07,0.083 0.024,0.032 0.053,0.058 0.075,0.092 l 27.13,42.952 c 0.014,0.023 0.015,0.048 0.027,0.071 0.018,0.033 0.038,0.061 0.052,0.096 0.012,0.032 0.016,0.064 0.026,0.096 0.008,0.029 0.023,0.056 0.029,0.085 0.001,0.006 0.005,0.013 0.006,0.019 0.005,0.028 -0.003,0.056 -0.001,0.084 0.002,0.026 0.015,0.047 0.015,0.073 l 1.081,104.132 0.717,1.057 27.868,13.652 19.012,8.008 18.327,-7.834 c 0.049,-0.036 0.102,-0.063 0.157,-0.09 0.033,-0.016 0.062,-0.034 0.097,-0.047 0.052,-0.019 0.105,-0.029 0.159,-0.039 l 6.05,-2.586 c 0.007,-0.003 0.014,-0.001 0.022,-0.004 0.007,-0.003 0.011,-0.01 0.018,-0.012 0.008,-0.003 0.015,-10e-4 0.022,-0.004 0.056,-0.02 0.114,-0.027 0.173,-0.036 0.024,-0.004 0.044,-0.019 0.068,-0.02 l 16.745,-1.504 2.751,-0.791 1.052,-15.788 c 10e-4,-0.009 0.006,-0.017 0.007,-0.026 0.001,-0.01 -0.003,-0.017 -0.002,-0.027 l 11.425,-94.093 -5.019,-25.643 c -0.007,-0.038 0.003,-0.074 0,-0.111 -0.003,-0.044 -0.018,-0.086 -0.015,-0.13 0.001,-0.019 0.007,-0.037 0.009,-0.055 10e-4,-0.015 -0.004,-0.028 -0.002,-0.042 0.002,-0.011 0.008,-0.019 0.01,-0.03 0.009,-0.046 0.029,-0.086 0.043,-0.13 0.013,-0.041 0.017,-0.082 0.036,-0.121 0.003,-0.006 0.002,-0.013 0.005,-0.019 0.005,-0.009 0.012,-0.015 0.016,-0.023 0.011,-0.019 0.024,-0.036 0.036,-0.055 0.015,-0.026 0.034,-0.048 0.052,-0.073 0.031,-0.04 0.061,-0.08 0.096,-0.115 0.007,-0.006 0.009,-0.016 0.016,-0.021 0.005,-0.004 0.01,-0.005 0.015,-0.009 0.021,-0.019 0.044,-0.032 0.067,-0.049 0,0 0.001,-0.001 0.002,-0.002 0.019,-0.014 0.034,-0.03 0.054,-0.044 0.042,-0.026 0.088,-0.045 0.133,-0.065 0.019,-0.009 0.035,-0.025 0.054,-0.033 0.013,-0.004 0.027,-0.003 0.039,-0.008 0.032,-0.01 0.062,-0.019 0.095,-0.027 0.01,-0.002 0.018,-0.009 0.028,-0.011 0.063,-0.013 0.126,-0.018 0.188,-0.018 0.001,0 0.002,-0.001 0.003,-0.001 h 0.001 v 0 h 0.001 v 0 c 0.002,0 0.003,0.001 0.005,0.001 0.046,0 0.094,0.003 0.141,0.01 l 30.384,4.504 0.771,-6.237 -18.566,-20.938 c -0.001,0 -0.001,-0.001 -0.001,-0.001 -0.038,-0.043 -0.058,-0.101 -0.088,-0.15 -0.034,-0.056 -0.074,-0.107 -0.096,-0.167 -0.004,-0.01 -0.012,-0.019 -0.016,-0.031 0,-10e-4 -0.001,-0.002 -0.001,-0.003 -0.011,-0.033 -0.005,-0.066 -0.012,-0.099 -0.005,-0.019 -0.005,-0.037 -0.008,-0.057 -0.01,-0.061 -0.026,-0.122 -0.024,-0.185 0,-0.014 -0.003,-0.027 -0.002,-0.041 0.004,-0.056 0.027,-0.106 0.041,-0.161 0.014,-0.057 0.02,-0.115 0.045,-0.17 0.005,-0.012 0.008,-0.026 0.014,-0.039 0.028,-0.055 0.073,-0.098 0.11,-0.148 0.029,-0.039 0.044,-0.084 0.079,-0.119 0.007,-0.008 0.018,-0.01 0.026,-0.017 0.007,-0.007 0.01,-0.016 0.017,-0.023 0.001,-10e-4 0.002,-10e-4 0.003,-0.002 0.021,-0.019 0.05,-0.028 0.073,-0.044 0.037,-0.028 0.077,-0.049 0.117,-0.07 0.037,-0.021 0.069,-0.05 0.109,-0.066 l 0.034,-0.012 c 0.006,-0.002 0.01,-0.006 0.016,-0.008 l 35.081,-11.513 c 0.008,-0.003 0.015,-10e-4 0.023,-0.004 0.026,-0.008 0.052,-0.012 0.079,-0.018 0.011,-0.002 0.019,-0.009 0.03,-0.011 0.06,-0.012 0.12,-0.017 0.178,-0.017 h 0.002 v 0 h 0.001 c 0.088,0 0.177,0.016 0.265,0.04 0.012,0.003 0.023,0.004 0.035,0.008 0.008,0.002 0.015,0.007 0.023,0.01 0.02,0.007 0.038,0.017 0.058,0.026 0.026,0.011 0.054,0.016 0.079,0.029 0.015,0.008 0.024,0.023 0.038,0.031 0.023,0.013 0.048,0.019 0.07,0.034 l 0.011,0.008 0.001,10e-4 24.689,17.085 c 0.001,0.001 0.001,0.002 0.002,0.002 0.011,0.007 0.018,0.019 0.03,0.028 0.045,0.034 0.086,0.073 0.126,0.116 0.022,0.024 0.046,0.048 0.066,0.075 0.01,0.014 0.024,0.024 0.034,0.038 l 2.661,3.912 c 0.029,0.043 0.036,0.092 0.057,0.137 0.032,0.067 0.068,0.129 0.085,0.202 0.017,0.074 0.012,0.146 0.012,0.22 10e-4,0.049 0.016,0.096 0.009,0.147 l -9.427,65.501 15.058,49.572 6.436,7.465 5.924,-1.692 c 0.023,-0.007 0.047,-0.005 0.069,-0.01 0.014,-0.002 0.024,-0.011 0.036,-0.013 l 59.785,-10.217 c 0.055,-0.01 0.111,-0.015 0.167,-0.015 h 0.001 10e-4 c 0.105,0 0.212,0.02 0.314,0.054 0.006,0.002 0.011,0.001 0.017,0.003 l 9.94,3.498 1.614,-27.142 -1.605,-15.7 -10.007,-28.799 c -0.013,-0.036 -0.007,-0.072 -0.015,-0.108 -0.008,-0.036 -0.03,-0.066 -0.034,-0.105 0,-0.002 0.001,-0.005 0.001,-0.008 -0.004,-0.032 0.006,-0.062 0.005,-0.093 -0.001,-0.065 0.007,-0.124 0.018,-0.187 0.003,-0.018 0.001,-0.036 0.005,-0.053 0.004,-0.018 0.001,-0.038 0.005,-0.056 0.007,-0.024 0.028,-0.045 0.037,-0.069 0,-0.001 10e-4,-0.002 10e-4,-0.003 0.023,-0.061 0.053,-0.115 0.088,-0.17 0.021,-0.033 0.032,-0.072 0.057,-0.103 0.002,-0.002 0.002,-0.006 0.004,-0.008 0.015,-0.017 0.036,-0.023 0.052,-0.04 0.043,-0.045 0.09,-0.084 0.142,-0.122 0.042,-0.03 0.08,-0.062 0.128,-0.087 0.026,-0.013 0.051,-0.023 0.077,-0.034 0.017,-0.007 0.028,-0.02 0.045,-0.026 0.043,-0.016 0.088,-0.014 0.131,-0.023 0.029,-0.005 0.053,-0.022 0.082,-0.026 l 24.493,-2.834 c 0.038,-0.005 0.076,-0.007 0.114,-0.007 h 10e-4 0.001 10e-4 c 0.001,0 0.002,0.001 0.004,0.001 0.08,0 0.158,0.01 0.238,0.03 l 17.518,4.389 c 0.003,0.001 0.006,0.004 0.009,0.005 0.064,0.016 0.121,0.044 0.18,0.072 0.02,0.01 0.042,0.016 0.062,0.027 0.027,0.014 0.049,0.034 0.074,0.051 0.026,0.017 0.046,0.037 0.07,0.056 0.041,0.034 0.081,0.068 0.117,0.11 0.018,0.02 0.03,0.044 0.047,0.067 0.006,0.008 0.012,0.016 0.017,0.024 0.016,0.025 0.034,0.045 0.048,0.07 0.008,0.013 0.02,0.023 0.027,0.038 l 3.229,6.411 c 10e-4,0.001 0,0.002 10e-4,0.003 0.002,0.005 0.003,0.009 0.005,0.012 0.02,0.042 0.022,0.09 0.037,0.135 0.003,0.009 0.005,0.02 0.008,0.03 0.017,0.056 0.041,0.11 0.047,0.169 0.001,0.008 0.005,0.014 0.006,0.022 l 10e-4,0.011 v 0.003 l 0.437,5.544 c 0.003,0.031 -0.011,0.058 -0.011,0.089 0,0.032 0.012,0.06 0.009,0.091 l -0.078,0.758 1.728,31.253 2.877,12.021 9.748,-13.026 0.058,-5.958 -5.841,-30.238 -9.499,-26.414 c -0.016,-0.047 -0.011,-0.095 -0.02,-0.143 -0.015,-0.068 -0.03,-0.133 -0.03,-0.202 0.001,-0.066 0.016,-0.128 0.029,-0.192 0.013,-0.062 0.021,-0.121 0.046,-0.18 0.027,-0.067 0.069,-0.124 0.111,-0.184 0.026,-0.037 0.038,-0.081 0.07,-0.116 l 6.951,-7.539 c 0.009,-0.01 0.022,-0.013 0.032,-0.022 0.039,-0.04 0.087,-0.069 0.134,-0.101 0.034,-0.025 0.057,-0.06 0.095,-0.08 l 13.774,-7.412 c 0.011,-0.006 0.023,-0.008 0.035,-0.014 0.006,-0.003 0.009,-0.008 0.015,-0.011 0.004,-0.002 0.01,-0.001 0.015,-0.003 0.014,-0.006 0.027,-0.011 0.04,-0.017 0.019,-0.008 0.038,-0.012 0.058,-0.019 0.102,-0.033 0.206,-0.055 0.309,-0.055 h 10e-4 0.002 l 31.557,0.05 h 0.002 c 0.084,0 0.168,0.012 0.251,0.035 0.025,0.006 0.049,0.02 0.073,0.028 0.018,0.007 0.035,0.008 0.053,0.015 0.016,0.006 0.028,0.017 0.045,0.025 0.02,0.011 0.044,0.015 0.064,0.026 0.001,0 0.001,10e-4 0.002,0.002 0.054,0.031 0.102,0.072 0.15,0.113 0.015,0.012 0.033,0.022 0.047,0.036 0.026,0.024 0.046,0.053 0.069,0.08 0.02,0.024 0.038,0.049 0.056,0.075 0.019,0.027 0.042,0.049 0.059,0.078 l 6.283,11.25 c 0.024,0.043 0.027,0.089 0.043,0.134 0.026,0.066 0.054,0.13 0.065,0.202 0.011,0.071 0.004,0.141 0,0.212 -0.003,0.047 0.009,0.093 -10e-4,0.141 l -4.069,19.777 0.824,11.728 10.683,50.204 c 0.001,0.005 -10e-4,0.008 0,0.013 0.003,0.016 0.002,0.033 0.004,0.049 0.007,0.043 0.004,0.085 0.005,0.129"
           style="fill:#46aa3f;fill-opacity:1;fill-rule:nonzero;stroke:none"
           id="path10297"
           inkscape:connector-curvature="0" /></g></g></g></svg>